Patient4_TMGait_0pt7_02_left_27_EMG.mot
version=1
nRows=26
nColumns=33
inDegrees=no
endheader
time	1LAddLong	2LGlutMax	3LGlutMed	4LIliopsoas	5LSemiMemb	6LBicFemLong	7LRecFem	8LVastMed	9LVastLat	10LGasMed	11LTibAnt	12lTibPost	13LPeroneusLong	14LSol	15LExtDigLong	16LFlexDigLong	17RAddLong	18RGlutMax	19RGlutMed	20RIliopsoas	21RSemiMemb	22RBicFemLong	23RRecFem	24RVastMed	25RVastLat	26RGasMed	27RTibAnt	28RTibPost	29RPeroneusLong	30RSol	31RExtDigLong	32RFlexDigLong
31.973	0.026855	0.41397	0.045929	0.003052	-0.023651	-0.028992	0.01297	0.010986	0.14343	0.003662	-0.049133	0.001984	0.11643	-0.079803	-0.021362	-0.003662	0.008392	0.20187	0.026245	-0.065002	-0.045624	0.021667	-0.24262	0.031281	0.036316	0.000763	0.8728	0.037384	0.05722	0.14069	-0.000305	-0.013428
31.974	0.015717	0.39139	0.034943	0.011292	0.033264	-0.023346	0.025024	0.005188	0.14282	0.016022	-0.036163	-0.010986	0.07782	-0.21332	0.098724	0.009155	-0.010071	0.21774	0.4042	-0.071411	0.093536	-0.027161	-0.20966	0.035095	-0.006104	-0.011597	0.81482	0.019989	-0.20981	-0.1619	-0.002441	-0.003204
31.975	0.013275	0.41794	0.001068	0.009155	0.027161	-0.030518	0.030518	0.00061	0.12894	0.005646	-0.02655	0.005341	0.072632	-0.23804	0.071564	-0.009308	0.000763	0.19348	0.45425	0.077209	0.071869	-0.041656	0.030518	0.048065	-0.023193	-0.011292	0.61844	-0.016174	-0.084076	-0.17487	-0.001831	-0.015869
31.976	-0.005493	0.40909	-0.082397	0.011749	0.007629	-0.035553	0.008087	0.004425	0.13153	-0.018005	-0.005341	0.002899	0.08728	-0.12344	0.032043	-0.018616	0.010681	0.19791	0.36407	0.2179	0.008698	-0.045471	0.22537	0.061188	0.011292	-0.011444	0.42572	-0.01236	0.3891	-0.17517	-0.002899	-0.005493
31.977	0.016632	0.42648	-0.077362	-0.005493	-0.007935	-0.019073	0.047302	0.005798	0.13016	-0.035095	0.057526	0.001373	0.1059	0.024261	-0.080414	-0.009918	0.003204	0.18234	0.49362	0.16647	0.01297	-0.062714	0.14221	-0.16159	0.010529	0.005493	-0.29144	-0.002747	1.0135	-0.31845	-0.003815	0.002441
31.978	0.022125	0.45425	-0.092773	-0.003052	-0.014648	-0.011902	0.029755	0.007629	0.1178	-0.02655	0.080719	0.00412	0.063477	0.095673	0.15045	-0.015717	0.012054	0.20172	0.53543	0.082245	0.0383	-0.02243	0.020447	-0.43488	0.15488	0.022583	-1.0678	-0.002594	0.52917	-0.42755	-0.006409	0.008545
31.979	0.015259	0.42297	-0.007172	0.008698	-0.020447	0.002289	0.024567	0.003204	0.12421	-0.032654	0.045471	-0.001831	0.053864	0.064697	0.69656	-0.002289	0.01297	0.2269	0.62485	-0.037079	0.016937	-0.054932	-0.036011	-0.5571	0.3772	0.019226	-0.88135	-0.008392	-0.37216	-0.34958	-0.003357	0.001678
31.98	0.013885	0.41977	0.027161	-0.003815	0.000458	-0.000458	0.010834	0.005798	0.13107	-0.034332	0.054321	-0.010834	0.065155	0.063171	0.081024	0.001068	-0.007782	0.26733	0.64697	-0.036316	-0.015259	-0.037537	0.036011	-0.29877	0.37506	0.022888	-0.70541	0.000305	-1.3188	-0.27817	-0.00473	0.002289
31.981	0.016785	0.39291	0.043945	0.010376	-0.017548	-0.005493	0.025024	0.005951	0.11627	-0.039825	0.079193	-0.000763	0.056915	0.063629	-0.24597	-0.018768	-0.007935	0.24765	0.45959	-0.055389	-0.024109	-0.04303	0.030823	-0.13168	0.23346	0.005188	-0.68436	-0.00946	-0.67932	-0.31891	-0.002899	0.000916
31.982	0.023193	0.35538	-0.005035	0.016632	0.02243	-0.000153	0.000916	0.002441	0.10651	-0.046082	0.017548	-0.00351	0.084686	0.0383	-0.16083	0.003357	-0.025177	0.19775	0.35782	-0.092926	-0.040283	-0.037079	-0.13077	-0.068207	0.22736	0.011444	-0.79147	-0.006714	0.60364	-0.31708	-0.004578	0.006561
31.983	0.014648	0.39002	-0.063324	0.000153	-0.015869	0.029602	-0.001526	0.005035	0.1004	-0.042572	-0.005188	-0.000763	0.072174	0.031738	-0.15823	-0.014496	-0.021973	0.28702	0.070648	-0.099945	-0.010071	-0.015106	-0.12054	0.050964	0.1651	0.01297	-0.73685	-0.007629	1.2764	-0.18646	-0.005035	-0.00946
31.984	0.020752	0.39108	-0.071106	0.013275	-0.029907	0.023499	0.010376	0.003967	0.10086	-0.032349	0.008392	0.003662	0.07309	0.013123	-0.11353	0.003815	-0.004883	0.27786	0.10544	-0.060425	-0.002136	-0.018921	0.14481	0.3923	0.000458	0.006104	-0.1474	-0.00824	-0.35645	-0.018158	-0.007019	-0.004578
31.985	0.016479	0.42725	-0.027618	0.005341	-0.00885	0.044708	-0.010834	0.007324	0.092773	-0.039673	0.034027	-0.005951	0.072174	-0.012512	-0.13168	-0.005341	-0.010223	0.29434	0.010834	-0.001984	-0.020599	-0.005493	0.18326	0.64743	-0.28915	-0.007324	0.020599	-0.007629	-1.5034	0.22324	-0.000916	-0.010681
31.986	0.007782	0.43778	0.017242	0.008087	0.004272	0.045013	-0.008087	0.000916	0.08728	-0.03006	0.049438	-0.005035	0.059509	-0.038605	-0.068665	-0.01358	0.007019	0.29053	-0.11124	-0.034332	-0.036316	-0.02121	0.015259	0.50674	-0.43213	-0.014038	-0.16022	-0.006561	-1.6743	0.28061	-0.001678	-0.011444
31.987	0.015106	0.38269	0.053864	0.005646	0.008087	0.054779	0.004578	0.006866	0.079498	-0.029449	0.088959	-0.000763	0.046692	-0.0354	0.004425	-0.00473	0.03006	0.27084	-0.092468	-0.065765	-0.011597	-0.12344	-0.1506	0.13962	-0.4361	-0.013123	-0.37155	-0.005646	-1.0724	0.22385	-0.003967	-0.007935
31.988	0.019836	0.40649	0.041199	0.001068	-0.028229	0.059509	-0.006256	0.00351	0.077972	-0.045471	0.11398	-0.005493	0.04364	-0.036316	0.050354	-0.001373	-0.001068	0.298	0.11704	-0.1152	0.05661	-0.065918	-0.49255	0.2034	-0.090942	-0.011749	-0.68329	-0.003357	1.4355	0.14206	0.001984	-0.009766
31.989	0.02655	0.31647	0.001984	-0.004425	-0.014343	0.033112	-0.033417	0.001373	0.073547	-0.048218	0.090485	-0.004883	0.052643	-0.032654	0.08255	-0.007629	0.003357	0.34927	-0.12924	-0.0914	0.035706	-0.009003	-0.42557	0.21255	-0.029144	-0.001373	-0.18768	-0.002441	2.1147	0.049438	-0.002289	-0.007172
31.99	-0.001068	0.31342	0.019684	0.009155	-0.011597	0.040894	-0.033569	0.005035	0.068359	-0.054626	-0.057526	-0.010223	0.13733	-0.02655	0.020294	0	0.002747	0.30807	-0.21133	-0.030212	-0.026398	0.012054	-0.099792	0.095825	-0.027771	0.00473	0.68192	-0.003052	1.6356	-0.045166	-0.003204	-0.002899
31.991	-0.003204	0.31693	-0.012512	0.014954	-0.021362	0.090637	-0.040741	0.004425	0.071869	-0.052643	-0.088043	0.00061	0.10834	-0.01297	0.011902	-0.014191	0.005951	0.34317	-0.13031	-0.010681	0.005035	-0.019836	0.056458	0.050507	-0.001984	0.00885	0.53329	-0.002747	0.56366	-0.11185	-0.003662	0.002289
31.992	0.009308	0.36774	-0.08606	0.009003	-0.004578	0.081024	-0.027771	0.006866	0.067749	-0.03067	-0.053864	-0.00946	0.079651	-0.027008	0.006256	-0.010986	0.010986	0.33768	0.67337	-0.043793	-0.00824	-0.040436	0.008392	0.049286	0.072784	0.001678	0.65811	-0.005646	-0.36224	-0.078735	-0.00061	-0.007019
31.993	0.015717	0.35111	-0.12482	0.003357	0.001373	0.078888	-0.048218	0.001984	0.065613	-0.027618	-0.041809	0.000153	0.06134	-0.02182	0.002289	-0.014496	0.016632	0.36041	0.49393	-0.06073	-0.047455	-0.03952	0.059967	0.011902	0.038452	-0.012207	0.52002	-0.007935	-1.0182	0.1001	-0.002594	0.001984
31.994	0.00824	0.34027	-0.1384	-0.006104	-0.029602	0.004272	-0.059509	0.003815	0.072174	-0.030975	-0.03891	-0.000153	0.092316	-0.00473	0.014343	-0.014801	0.023651	0.31494	0.29373	-0.22095	-0.1767	-0.015717	0.10117	-0.033417	-0.007324	-0.020599	-0.5542	-0.007477	-1.3461	0.31036	-0.002594	0.001221
31.995	0.01709	0.2713	-0.058899	-0.000305	0.021667	-0.1001	-0.07019	-0.003662	0.076141	-0.036316	-0.015564	0	0.062256	-0.01709	0.020599	0.002289	0.036469	0.3569	0.32379	-0.19577	-0.24094	-0.024567	0.14618	-0.13779	-0.005341	-0.024414	-0.34042	-0.002747	-0.15335	0.3006	-0.001678	-0.011749
31.996	0.02182	0.27481	-0.027924	0.013733	0.054932	-0.033417	-0.056152	-0.002747	0.058746	-0.038757	-0.019684	-0.003204	0.055084	0.021515	0.030823	-0.005798	0.033417	0.37979	0.44556	-0.093842	-0.25925	-0.027924	0.15823	-0.13214	-0.023041	-0.013123	0.00351	-0.003662	0.60699	0.11154	-0.004272	-0.003357
31.997	0.039368	0.27023	-0.019531	0.007172	0.019836	0.007629	-0.05127	0.005798	0.041046	-0.032806	-0.006866	-0.002594	0.074615	0.000153	0.008392	-0.000305	0.010223	0.37674	0.47501	0.037537	0.08255	-0.037842	-0.055084	-0.061035	-0.000916	-0.012054	-0.43167	-0.005798	-0.3508	0.081177	-0.00473	-0.003662
31.998	0.079346	0.28534	-0.006409	0.007782	-0.006409	0.032349	-0.047607	0.002441	0.026093	-0.032959	0.00351	-0.002899	0.044098	-0.058594	-0.007935	0.020752	0.002441	0.39825	0.81558	0.23621	0.25207	-0.10803	-0.067749	0.072784	0.070496	-0.016327	-0.45441	-0.007019	0.061188	0.13336	-0.004883	-0.016937
